<svg width="98" height="23" viewBox="0 0 98 23" fill="none" xmlns="http://www.w3.org/2000/svg">
  <path d="M89.2323 18.9295C86.5903 18.9295 84.8316 16.9479 84.8316 14.0889C84.8316 11.2299 86.5923 9.24651 89.2323 9.24651C91.8404 9.24651 93.6012 11.2261 93.6012 14.0871C93.6012 16.9479 91.8404 18.9275 89.2323 18.9275V18.9295ZM89.2323 5.90625C84.3919 5.90625 80.9289 9.3635 80.9289 14.0795C80.9289 18.7954 84.3861 22.2508 89.2323 22.2508C94.0408 22.2508 97.4999 18.7936 97.4999 14.0795C97.4999 9.36539 94.0408 5.91569 89.2323 5.91569" fill="#00A1FC"/>
  <path d="M71.534 1.38672V16.4744C71.534 19.994 73.7986 22.0057 77.2559 22.0057H79.8318V18.5163H77.6955C76.25 18.5163 75.4007 17.6993 75.4007 16.097V9.40142H79.8318V6.16308H75.4007V1.38672H71.534Z" fill="#00A1FC"/>
  <path d="M64.2146 22.0145V12.0824C64.2146 10.4783 65.0638 9.66121 66.5093 9.66121H69.5871V6.17188H66.0696C62.6104 6.17188 60.3477 8.18357 60.3477 11.705V22.0145H64.2146Z" fill="#00A1FC"/>
  <path d="M50.3739 18.9294C47.7318 18.9294 45.973 16.948 45.973 14.0889C45.973 11.2299 47.7337 9.24651 50.3739 9.24651C52.9819 9.24651 54.7426 11.2261 54.7426 14.0871C54.7426 16.948 52.9819 18.9276 50.3739 18.9276V18.9294ZM50.3739 5.90625C45.5333 5.90625 42.0704 9.3635 42.0704 14.0795C42.0704 18.7954 45.5428 22.2678 50.3739 22.2678C55.1823 22.2678 58.6395 18.8106 58.6395 14.0965C58.6395 9.38237 55.1823 5.92324 50.3739 5.92324" fill="#00A1FC"/>
  <path d="M34.467 10.1604H30.004V3.49688H34.467C36.9203 3.49688 37.9262 5.06698 37.9262 6.82769C37.9262 8.58839 36.9203 10.1604 34.467 10.1604ZM34.6558 0.00754876H25.8239V22.0098H30.004V13.6497H34.6558C39.2453 13.6497 41.9797 10.819 41.9797 6.82769C41.9797 2.83638 39.2453 0 34.6558 0" fill="#00A1FC"/>
  <path d="M19.238 11.9355C17.3034 9.53928 10.9228 10.7926 5.95262 12.3965C5.93902 12.4024 5.92416 12.4049 5.90939 12.4037C5.89462 12.4024 5.88036 12.3975 5.86789 12.3895C5.85541 12.3814 5.8451 12.3703 5.83784 12.3573C5.8306 12.3442 5.82663 12.3295 5.8263 12.3146C5.8263 12.0612 5.83761 11.8041 5.83761 11.5526C5.84258 10.2759 5.73658 9.0011 5.52084 7.74304C5.51804 7.72192 5.5233 7.70052 5.53556 7.68318C5.54781 7.66585 5.56615 7.65388 5.58684 7.64971C9.70101 6.12586 17.9878 5.6649 19.4058 11.8688C19.4283 11.9603 19.2945 12.0136 19.236 11.9374L19.238 11.9355ZM15.0729 18.8956C14.9371 18.9966 14.7598 18.8309 14.8843 18.7052C16.8867 16.6366 18.5309 13.3565 4.02186 20.0386C3.93325 20.0786 3.84462 19.9852 3.90307 19.9109C4.70253 18.7681 5.41148 16.8975 5.73767 14.2613C5.73959 14.245 5.74586 14.2293 5.75582 14.2163C5.76578 14.2032 5.77905 14.193 5.79424 14.187C14.8862 10.4974 25.1565 10.6345 15.0804 18.8995L15.0729 18.8956ZM2.94147 2.40006C2.92402 2.39119 2.91023 2.37641 2.90251 2.35829C2.89479 2.34018 2.89366 2.31988 2.89929 2.301C2.90491 2.28212 2.91697 2.26584 2.9333 2.25504C2.94964 2.24424 2.96922 2.23961 2.9886 2.24195C5.50387 2.24195 13.0817 2.05147 16.9885 7.08588C17.0413 7.1735 16.9188 7.26113 16.8414 7.19255C15.663 6.15633 12.4728 4.40201 5.11922 5.93728C5.09548 5.94393 5.07012 5.94112 5.04836 5.92942C5.02661 5.91773 5.01013 5.89804 5.00233 5.87442C4.41781 3.98485 3.68246 2.96197 2.94147 2.40006ZM19.0947 0H2.5719C1.88514 0.00503462 1.22845 0.285352 0.746183 0.779337C0.26392 1.27332 -0.00444759 1.94054 6.9117e-05 2.63434V19.5719C-0.002416 19.9156 0.0621363 20.2564 0.190039 20.5749C0.317944 20.8934 0.506694 21.1834 0.745512 21.4282C0.984331 21.673 1.26854 21.8678 1.58192 22.0016C1.89529 22.1355 2.23169 22.2056 2.5719 22.2082H19.0947C19.4349 22.2056 19.7712 22.1355 20.0846 22.0016C20.3979 21.8678 20.6821 21.673 20.9211 21.4282C21.1598 21.1834 21.3486 20.8934 21.4764 20.5749C21.6044 20.2564 21.669 19.9156 21.6664 19.5719V2.64197C21.6697 2.29779 21.6056 1.95635 21.4782 1.6372C21.3505 1.31804 21.1619 1.02744 20.923 0.782029C20.6841 0.536622 20.3996 0.341228 20.086 0.207036C19.7722 0.072844 19.4354 0.00248955 19.0947 0Z" fill="#00A1FC"/>
  </svg>
